<?xml version="1.0" encoding="UTF-8"?>
<svg width="40px" height="40px" viewBox="0 0 40 40" version="1.1" xmlns="http://www.w3.org/2000/svg" xmlns:xlink="http://www.w3.org/1999/xlink">
    <!-- Generator: Sketch 52.3 (67297) - http://www.bohemiancoding.com/sketch -->
    <title>facebook_icon</title>
    <desc>Created with Sketch.</desc>
    <g id="facebook_icon" stroke="none" stroke-width="1" fill="none" fill-rule="evenodd">
        <g id="Group-3" transform="translate(4.000000, 4.000000)" fill="#FFFFFF">
            <path d="M32.9916667,3.4109375 L32.9916667,28.4244792 C32.9916667,30.3076009 31.4083612,31.8354167 29.4568452,31.8354167 L23.175173,31.8354167 L23.175173,19.2433724 L27.637885,19.2433724 L28.2785714,14.4396354 L23.175173,14.4396354 L23.175173,11.3697917 C23.175173,9.97699219 23.5728404,9.03187826 25.6421838,9.03187826 L28.2785714,9.03187826 L28.2785714,4.7397819 C27.8219903,4.68293294 26.2607775,4.54791667 24.4344531,4.54791667 C20.6345201,4.54791667 18.0275893,6.7863444 18.0275893,10.9007878 L18.0275893,14.4467415 L13.5501488,14.4467415 L13.5501488,19.2504785 L18.0349535,19.2504785 L18.0349535,31.8354167 L3.53482143,31.8354167 C1.58330543,31.8354167 0,30.3076009 0,28.4244792 L0,3.4109375 C0,1.52781576 1.58330543,0 3.53482143,0 L29.4568452,0 C31.4083612,0 32.9916667,1.52781576 32.9916667,3.4109375" id="Fill-1"></path>
        </g>
    </g>
</svg>