<?xml version="1.0" standalone="no"?>
<!DOCTYPE svg PUBLIC "-//W3C//DTD SVG 20010904//EN"
 "http://www.w3.org/TR/2001/REC-SVG-20010904/DTD/svg10.dtd">
<svg version="1.0" xmlns="http://www.w3.org/2000/svg"
 width="481.000000pt" height="1024.000000pt" viewBox="0 0 481.000000 1024.000000"
 preserveAspectRatio="xMidYMid meet">
<metadata>
Created by potrace 1.15, written by Peter Selinger 2001-2017
</metadata>
<g transform="translate(0.000000,1024.000000) scale(0.100000,-0.100000)"
fill="#000000" stroke="none">
<path d="M0 6342 l0 -3899 593 -293 c325 -161 1082 -535 1682 -830 600 -296
1414 -698 1809 -894 396 -196 721 -356 723 -356 1 0 3 1756 3 3903 l0 3902
-798 395 c-1986 983 -3994 1970 -4007 1970 -3 0 -5 -1754 -5 -3898z m4618 711
l-3 -646 -675 -334 c-371 -183 -678 -333 -682 -333 -5 0 -8 290 -8 645 l0 646
205 101 c113 56 208 99 211 95 3 -3 9 -199 12 -437 l7 -431 251 124 251 125 6
53 c4 30 7 230 7 444 l0 390 203 102 c111 56 205 102 210 102 4 1 6 -290 5
-646z m-1528 -318 l0 -205 -235 -117 -235 -118 0 -438 0 -438 -212 -103 -213
-102 -3 433 c-1 238 -4 433 -7 433 -3 0 -109 -52 -235 -115 l-230 -115 1 212
0 213 302 149 c544 269 1052 516 1060 516 4 0 7 -92 7 -205z m1532 -1146 l-3
-646 -210 -101 -209 -101 0 435 c0 239 -2 434 -5 434 -3 0 -120 -57 -260 -127
l-255 -128 0 -255 c0 -140 -3 -339 -7 -441 l-6 -186 -209 -101 -208 -100 0
647 0 647 463 229 c403 200 912 446 912 442 0 -1 -1 -293 -3 -648z m-3062 393
l0 -207 -235 -118 -235 -117 0 -229 0 -230 123 58 c67 32 173 84 235 115 l112
56 0 -202 0 -203 -93 -48 c-50 -27 -359 -181 -684 -342 l-593 -294 0 207 0
207 235 118 235 117 0 225 c0 145 -4 225 -10 225 -6 0 -109 -49 -230 -110
-121 -60 -222 -110 -225 -110 -3 0 -4 95 -3 210 l3 210 675 334 c371 184 678
335 683 335 4 1 7 -92 7 -207z m1530 -1148 l0 -645 -172 -84 c-95 -45 -190
-90 -210 -98 l-38 -16 0 135 c0 82 -4 134 -10 134 -5 0 -125 -57 -265 -127
l-255 -128 0 -142 0 -143 -207 -100 c-113 -55 -208 -100 -210 -100 -2 0 -2
291 -1 647 l3 646 675 334 c371 183 678 333 683 333 4 0 7 -291 7 -646z
m-2479 -1003 c2 -236 7 -432 11 -436 3 -4 213 95 465 219 253 124 462 226 466
226 4 0 7 -91 7 -202 l0 -203 -638 -314 c-350 -173 -658 -325 -684 -338 l-48
-23 0 647 0 648 203 102 c111 56 205 102 208 102 4 1 9 -192 10 -428z"/>
<path d="M2398 4727 l-258 -132 0 -152 c0 -93 4 -153 10 -153 5 0 124 57 265
126 l255 126 0 159 c0 87 -3 159 -7 158 -5 -1 -124 -60 -265 -132z"/>
</g>
</svg>
