<?xml version="1.0" encoding="UTF-8"?>
<svg width="512px" height="440px" viewBox="0 0 512 440" version="1.1" xmlns="http://www.w3.org/2000/svg" xmlns:xlink="http://www.w3.org/1999/xlink">
    <title>finger-down</title>
    <g id="Page-1" stroke="none" stroke-width="1" fill="none" fill-rule="evenodd">
        <g id="finger-down" transform="translate(256.000000, 220.000000) scale(-1, 1) rotate(90.000000) translate(-256.000000, -220.000000) translate(36.000000, -36.000000)" fill="#FFFFFF" fill-rule="nonzero">
            <path d="M419.387,182.438 C408.156,151.226 402.543,130.003 402.543,118.772 L402.543,36.547 C402.543,26.457 398.963,17.843 391.831,10.707 C384.692,3.571 376.075,0 365.987,0 L183.271,0 C173.183,0 164.569,3.571 157.43,10.707 C150.297,17.847 146.725,26.461 146.725,36.547 L146.725,118.772 C146.725,120.674 146.297,122.717 145.438,124.908 C144.579,127.099 143.248,129.338 141.439,131.619 C139.632,133.9 137.918,136.046 136.302,138.042 C134.686,140.038 132.546,142.325 129.879,144.893 C127.216,147.461 125.17,149.411 123.743,150.745 C122.318,152.079 120.271,153.885 117.604,156.169 C114.94,158.453 113.321,159.789 112.75,160.168 C98.668,172.538 86.388,182.056 75.921,188.717 C71.925,191.191 66.024,194.331 58.221,198.136 C50.417,201.945 43.566,205.467 37.664,208.702 C31.763,211.939 25.767,215.795 19.677,220.265 C13.586,224.736 8.877,229.972 5.543,235.968 C2.21,241.964 0.547,248.577 0.547,255.81 C0.547,279.601 6.97,299.254 19.82,314.767 C32.667,330.28 50.604,338.041 73.635,338.041 C87.722,338.041 99.903,335.943 110.18,331.758 L110.18,438.536 C110.18,458.33 117.413,475.461 131.88,489.931 C146.345,504.393 163.379,511.623 182.986,511.623 C202.97,511.623 220.197,504.44 234.655,490.074 C249.131,475.697 256.358,458.521 256.358,438.536 L256.358,390.284 C268.726,388.953 280.046,385.428 290.327,379.716 C294.331,380.291 298.424,380.572 302.605,380.572 C322.016,380.572 338.956,374.767 353.424,363.156 L354.855,363.437 C381.503,363.631 402.197,355.35 416.947,338.598 C431.703,321.854 439.071004,299.965 439.071004,272.937 C439.077,248.767 432.518,218.594 419.387,182.438 Z M334.873,41.961 C338.493,38.344 342.771,36.535 347.72,36.535 C352.669,36.535 356.952,38.344 360.574,41.961 C364.187,45.58 365.995,49.863 365.995,54.811 C365.995,59.76 364.184,64.041 360.574,67.658 C356.953,71.273 352.669,73.082 347.72,73.082 C342.771,73.082 338.493,71.273 334.873,67.658 C331.259,64.041 329.452,59.763 329.452,54.811 C329.452,49.859 331.259,45.576 334.873,41.961 Z M390.842,312.765 C383.03,321.998 371.042,326.612 354.865,326.612 C348.773,326.612 343.442,326.235 338.877,325.468 C335.831,331.184 330.835,335.7 323.888,339.033 C316.941,342.359 309.946,344.03 302.904,344.03 C295.868,344.03 289.297,342.318 283.206,338.889 C273.692,348.978 262.368,354.022 249.234,354.022 C238.382,354.022 228.574,350.682 219.822,344.023 L219.822,438.522 C219.822,448.419 216.207,456.988 208.972,464.222 C201.739,471.453 193.172,475.077 183.275,475.077 C173.567,475.077 165.05,471.353 157.722,463.934 C150.392,456.515 146.73,448.048 146.73,438.521 L146.73,274.077 C142.921,274.077 138.307,275.505 132.881,278.358 C127.457,281.215 122.221,284.354 117.178,287.78 C112.136,291.205 105.662,294.346 97.764,297.201 C89.862,300.055 81.824,301.478 73.638,301.478 C60.885,301.478 51.609,297.249 45.802,288.775 C39.996,280.309 37.094,269.31 37.094,255.803 C37.094,254.282 38.188,252.516 40.378,250.523 C42.568,248.528 45.47,246.481 49.086,244.387 C52.703,242.294 56.081,240.392 59.22,238.677 C62.36,236.968 65.787,235.205 69.499,233.397 C73.21,231.588 75.351,230.591 75.922,230.401 C84.679,225.831 91.152,222.219 95.339,219.551 C107.52,211.94 121.32,201.28 136.735,187.574 C137.688,186.815 139.019,185.671 140.734,184.147 C147.014,178.629 152.151,173.964 156.149,170.159 C160.148,166.354 164.525,161.596 169.284,155.882 C174.042,150.171 177.56,144.228 179.846,138.039 C182.13,131.85 183.271,125.427 183.271,118.766 L183.271,109.63 L365.994,109.63 L365.994,118.766 C365.994,132.472 369.04,148.363 375.131,166.445 C381.223,184.528 387.314,202.99 393.405,221.834 C399.497,240.677 402.543002,258.094 402.543002,274.082 C402.543002,290.638 398.635,303.532 390.842,312.765 Z" id="Shape"></path>
        </g>
    </g>
</svg>