<svg width="1000px" height="375px" xmlns="http://www.w3.org/2000/svg" xmlns:xlink="http://www.w3.org/1999/xlink">
<g style="">  <path d="M20.010000,357.000000 L20.010000,17.695000 L155.890000,17.695000 L155.890000,83.660000 L88.345000,83.660000 L88.345000,137.775000 L152.335000,137.775000 L152.335000,202.950000 L88.345000,202.950000 L88.345000,357.000000 Z M177.615000,17.695000 L281.895000,17.695000 C298.485083,17.695000,311.322455,21.447462,320.407500,28.952500 C329.492545,36.457538,335.614984,46.990766,338.775000,60.552500 C341.935016,74.114234,343.515000,91.428228,343.515000,112.495000 C343.515000,131.718429,341.013358,146.728279,336.010000,157.525000 C331.006642,168.321721,322.316729,175.826646,309.940000,180.040000 C320.210051,182.146677,327.649144,187.281626,332.257500,195.445000 C336.865856,203.608374,339.170000,214.668264,339.170000,228.625000 L338.380000,357.000000 L272.020000,357.000000 L272.020000,224.280000 C272.020000,214.799953,270.176685,208.743346,266.490000,206.110000 C262.803315,203.476653,256.088382,202.160000,246.345000,202.160000 L246.345000,357.000000 L177.615000,357.000000 Z M262.935000,143.305000 C272.415047,143.305000,277.155000,133.035103,277.155000,112.495000 C277.155000,103.541622,276.760004,96.826689,275.970000,92.350000 C275.179996,87.873311,273.731677,84.779175,271.625000,83.067500 C269.518323,81.355825,266.490020,80.500000,262.540000,80.500000 L246.740000,80.500000 L246.740000,143.305000 Z M362.870000,357.000000 L362.870000,17.695000 L428.440000,17.695000 L428.440000,357.000000 Z M455.695000,17.695000 L549.310000,17.695000 C573.536788,17.695000,591.706606,24.409933,603.820000,37.840000 C615.933394,51.270067,622.121665,71.151535,622.385000,97.485000 L623.175000,256.275000 C623.438335,289.718501,617.645059,314.866582,605.795000,331.720000 C593.944941,348.573418,574.326804,357.000000,546.940000,357.000000 L455.695000,357.000000 Z M535.880000,296.960000 C548.256729,296.960000,554.445000,290.903394,554.445000,278.790000 L554.445000,103.805000 C554.445000,96.168295,553.852506,90.440852,552.667500,86.622500 C551.482494,82.804148,549.310016,80.236673,546.150000,78.920000 C542.989984,77.603327,538.118366,76.945000,531.535000,76.945000 L524.030000,76.945000 L524.030000,296.960000 Z M641.345000,357.000000 L674.130000,17.695000 L789.075000,17.695000 L821.465000,357.000000 L757.080000,357.000000 L752.340000,302.095000 L711.260000,302.095000 L707.310000,357.000000 Z M716.395000,247.980000 L747.205000,247.980000 L732.195000,75.365000 L729.035000,75.365000 Z M61.090000,937.000000 L61.090000,825.215000 L6.975000,597.695000 L74.125000,597.695000 L93.085000,712.640000 L112.045000,597.695000 L179.195000,597.695000 L125.080000,825.215000 L125.080000,937.000000 Z " style="fill: rgba(255, 255, 255, 1.000000); stroke-width: 2.000000px; stroke: rgba(255, 255, 255, 1.000000); " fill="#feffff" stroke="#ffffff" stroke-width="2.000000" />
</g></svg>