<svg width="1036px" height="399px" xmlns="http://www.w3.org/2000/svg" xmlns:xlink="http://www.w3.org/1999/xlink">
<g style="">  <path d="M31.010000,369.000000 L31.010000,29.695000 L166.890000,29.695000 L166.890000,95.660000 L99.345000,95.660000 L99.345000,149.775000 L163.335000,149.775000 L163.335000,214.950000 L99.345000,214.950000 L99.345000,369.000000 Z M188.615000,29.695000 L292.895000,29.695000 C309.485083,29.695000,322.322455,33.447462,331.407500,40.952500 C340.492545,48.457538,346.614984,58.990766,349.775000,72.552500 C352.935016,86.114234,354.515000,103.428228,354.515000,124.495000 C354.515000,143.718429,352.013358,158.728279,347.010000,169.525000 C342.006642,180.321721,333.316729,187.826646,320.940000,192.040000 C331.210051,194.146677,338.649144,199.281626,343.257500,207.445000 C347.865856,215.608374,350.170000,226.668264,350.170000,240.625000 L349.380000,369.000000 L283.020000,369.000000 L283.020000,236.280000 C283.020000,226.799953,281.176685,220.743346,277.490000,218.110000 C273.803315,215.476653,267.088382,214.160000,257.345000,214.160000 L257.345000,369.000000 L188.615000,369.000000 Z M273.935000,155.305000 C283.415047,155.305000,288.155000,145.035103,288.155000,124.495000 C288.155000,115.541622,287.760004,108.826689,286.970000,104.350000 C286.179996,99.873311,284.731677,96.779175,282.625000,95.067500 C280.518323,93.355825,277.490020,92.500000,273.540000,92.500000 L257.740000,92.500000 L257.740000,155.305000 Z M373.870000,369.000000 L373.870000,29.695000 L439.440000,29.695000 L439.440000,369.000000 Z M466.695000,29.695000 L560.310000,29.695000 C584.536788,29.695000,602.706606,36.409933,614.820000,49.840000 C626.933394,63.270067,633.121665,83.151535,633.385000,109.485000 L634.175000,268.275000 C634.438335,301.718501,628.645059,326.866582,616.795000,343.720000 C604.944941,360.573418,585.326804,369.000000,557.940000,369.000000 L466.695000,369.000000 Z M546.880000,308.960000 C559.256729,308.960000,565.445000,302.903394,565.445000,290.790000 L565.445000,115.805000 C565.445000,108.168295,564.852506,102.440852,563.667500,98.622500 C562.482494,94.804148,560.310016,92.236673,557.150000,90.920000 C553.989984,89.603327,549.118366,88.945000,542.535000,88.945000 L535.030000,88.945000 L535.030000,308.960000 Z M652.345000,369.000000 L685.130000,29.695000 L800.075000,29.695000 L832.465000,369.000000 L768.080000,369.000000 L763.340000,314.095000 L722.260000,314.095000 L718.310000,369.000000 Z M727.395000,259.980000 L758.205000,259.980000 L743.195000,87.365000 L740.035000,87.365000 Z M72.090000,949.000000 L72.090000,837.215000 L17.975000,609.695000 L85.125000,609.695000 L104.085000,724.640000 L123.045000,609.695000 L190.195000,609.695000 L136.080000,837.215000 L136.080000,949.000000 Z " style="fill: rgba(255, 255, 255, 1.000000); stroke-width: 2.000000px; stroke: rgba(255, 255, 255, 1.000000); " fill="#feffff" stroke="#ffffff" stroke-width="2.000000" />
</g></svg>