<svg width="1507px" height="526px" xmlns="http://www.w3.org/2000/svg" xmlns:xlink="http://www.w3.org/1999/xlink">
<g style="">  <path d="M100.590000,453.160000 C69.779846,453.160000,47.528402,445.523410,33.835000,430.250000 C20.141598,414.976590,13.295000,390.355170,13.295000,356.385000 L13.295000,323.205000 L80.050000,323.205000 L80.050000,365.470000 C80.050000,382.323418,85.448279,390.750000,96.245000,390.750000 C102.301697,390.750000,106.514988,388.972518,108.885000,385.417500 C111.255012,381.862482,112.440000,375.871709,112.440000,367.445000 C112.440000,356.384945,111.123346,347.234203,108.490000,339.992500 C105.856654,332.750797,102.499187,326.694191,98.417500,321.822500 C94.335813,316.950809,87.028386,309.380051,76.495000,299.110000 L47.265000,269.880000 C24.618220,247.759889,13.295000,223.270134,13.295000,196.410000 C13.295000,167.443189,19.944100,145.389242,33.242500,130.247500 C46.540900,115.105758,65.961539,107.535000,91.505000,107.535000 C122.051819,107.535000,144.039933,115.632419,157.470000,131.827500 C170.900067,148.022581,177.615000,173.368161,177.615000,207.865000 L108.490000,207.865000 L108.095000,184.560000 C108.095000,180.083311,106.844179,176.528346,104.342500,173.895000 C101.840821,171.261653,98.351689,169.945000,93.875000,169.945000 C88.608307,169.945000,84.658347,171.393319,82.025000,174.290000 C79.391654,177.186681,78.075000,181.136642,78.075000,186.140000 C78.075000,197.200055,84.394937,208.654941,97.035000,220.505000 L136.535000,258.425000 C145.751713,267.378378,153.388303,275.870793,159.445000,283.902500 C165.501697,291.934207,170.373315,301.414112,174.060000,312.342500 C177.746685,323.270888,179.590000,336.239925,179.590000,351.250000 C179.590000,384.693501,173.467561,410.039080,161.222500,427.287500 C148.977439,444.535920,128.766808,453.160000,100.590000,453.160000 Z M193.020000,450.000000 L225.805000,110.695000 L340.750000,110.695000 L373.140000,450.000000 L308.755000,450.000000 L304.015000,395.095000 L262.935000,395.095000 L258.985000,450.000000 Z M268.070000,340.980000 L298.880000,340.980000 L283.870000,168.365000 L280.710000,168.365000 Z M422.910000,450.000000 L422.910000,175.870000 L382.620000,175.870000 L382.620000,110.695000 L531.140000,110.695000 L531.140000,175.870000 L490.850000,175.870000 L490.850000,450.000000 Z M628.705000,453.160000 C600.791527,453.160000,580.054234,445.260079,566.492500,429.460000 C552.930766,413.659921,546.150000,390.223489,546.150000,359.150000 L546.150000,110.695000 L612.115000,110.695000 L612.115000,356.385000 C612.115000,367.181721,613.168323,375.608303,615.275000,381.665000 C617.381677,387.721697,621.858299,390.750000,628.705000,390.750000 C635.551701,390.750000,640.028323,387.787530,642.135000,381.862500 C644.241677,375.937470,645.295000,367.445055,645.295000,356.385000 L645.295000,110.695000 L711.260000,110.695000 L711.260000,359.150000 C711.260000,390.223489,704.479234,413.659921,690.917500,429.460000 C677.355766,445.260079,656.618473,453.160000,628.705000,453.160000 Z M737.330000,110.695000 L841.610000,110.695000 C858.200083,110.695000,871.037455,114.447462,880.122500,121.952500 C889.207545,129.457538,895.329984,139.990766,898.490000,153.552500 C901.650016,167.114234,903.230000,184.428228,903.230000,205.495000 C903.230000,224.718429,900.728358,239.728279,895.725000,250.525000 C890.721642,261.321721,882.031729,268.826646,869.655000,273.040000 C879.925051,275.146677,887.364144,280.281626,891.972500,288.445000 C896.580856,296.608374,898.885000,307.668264,898.885000,321.625000 L898.095000,450.000000 L831.735000,450.000000 L831.735000,317.280000 C831.735000,307.799953,829.891685,301.743346,826.205000,299.110000 C822.518315,296.476653,815.803382,295.160000,806.060000,295.160000 L806.060000,450.000000 L737.330000,450.000000 Z M822.650000,236.305000 C832.130047,236.305000,836.870000,226.035103,836.870000,205.495000 C836.870000,196.541622,836.475004,189.826689,835.685000,185.350000 C834.894996,180.873311,833.446677,177.779175,831.340000,176.067500 C829.233323,174.355825,826.205020,173.500000,822.255000,173.500000 L806.455000,173.500000 L806.455000,236.305000 Z M925.745000,110.695000 L1019.360000,110.695000 C1043.586788,110.695000,1061.756606,117.409933,1073.870000,130.840000 C1085.983394,144.270067,1092.171665,164.151535,1092.435000,190.485000 L1093.225000,349.275000 C1093.488335,382.718501,1087.695059,407.866582,1075.845000,424.720000 C1063.994941,441.573418,1044.376804,450.000000,1016.990000,450.000000 L925.745000,450.000000 Z M1005.930000,389.960000 C1018.306729,389.960000,1024.495000,383.903394,1024.495000,371.790000 L1024.495000,196.805000 C1024.495000,189.168295,1023.902506,183.440852,1022.717500,179.622500 C1021.532494,175.804148,1019.360016,173.236673,1016.200000,171.920000 C1013.039984,170.603327,1008.168366,169.945000,1001.585000,169.945000 L994.080000,169.945000 L994.080000,389.960000 Z M1111.395000,450.000000 L1144.180000,110.695000 L1259.125000,110.695000 L1291.515000,450.000000 L1227.130000,450.000000 L1222.390000,395.095000 L1181.310000,395.095000 L1177.360000,450.000000 Z M1186.445000,340.980000 L1217.255000,340.980000 L1202.245000,168.365000 L1199.085000,168.365000 Z M1353.135000,450.000000 L1353.135000,338.215000 L1299.020000,110.695000 L1366.170000,110.695000 L1385.130000,225.640000 L1404.090000,110.695000 L1471.240000,110.695000 L1417.125000,338.215000 L1417.125000,450.000000 Z " style="fill: rgba(255, 255, 255, 1.000000); stroke-width: 2.000000px; stroke: rgba(255, 255, 255, 1.000000); " fill="#feffff" stroke="#ffffff" stroke-width="2.000000" />
</g></svg>