<?xml version="1.0" encoding="utf-8"?>
<!-- Generator: Adobe Illustrator 23.1.1, SVG Export Plug-In . SVG Version: 6.00 Build 0)  -->
<svg version="1.1" id="Layer_7" xmlns="http://www.w3.org/2000/svg" xmlns:xlink="http://www.w3.org/1999/xlink" x="0px" y="0px"
	 viewBox="0 0 390.6 64.1" style="enable-background:new 0 0 390.6 64.1;" xml:space="preserve">
<style type="text/css">
	.st0{fill:#FFFFFF;}
</style>
<g>
	<g>
		<path class="st0" d="M222.5,49.5V21.9h4.2l9.4,14c2.1,3.2,3.9,6.1,5.2,9l0.1,0c-0.3-3.7-0.4-7-0.4-11.3V21.9h3.6v27.6h-3.8
			l-9.3-14c-2.1-3.1-4-6.2-5.5-9.2l-0.1,0c0.2,3.5,0.3,6.8,0.3,11.4v11.8H222.5z"/>
		<path class="st0" d="M253.3,40.2c0.1,4.9,3.4,6.9,7.3,6.9c2.8,0,4.5-0.5,5.9-1l0.7,2.6c-1.4,0.6-3.7,1.3-7.1,1.3
			c-6.5,0-10.4-4.1-10.4-10s3.8-10.7,9.9-10.7c6.9,0,8.7,5.7,8.7,9.3c0,0.7,0,1.3-0.1,1.7H253.3z M264.5,37.6c0-2.3-1-5.8-5.3-5.8
			c-3.9,0-5.6,3.3-5.9,5.8H264.5z"/>
		<path class="st0" d="M274.7,29.7l3,4.3c0.8,1.1,1.5,2.1,2.2,3.2h0.1c0.7-1.1,1.4-2.2,2.1-3.2l2.9-4.2h4.2l-7.2,9.6l7.4,10.2h-4.3
			l-3.1-4.5c-0.8-1.1-1.5-2.3-2.3-3.4h-0.1c-0.7,1.2-1.4,2.3-2.2,3.4l-3.1,4.5H270l7.5-10.1l-7.2-9.7H274.7z"/>
		<path class="st0" d="M298.3,24.9v4.8h5.5v2.7h-5.5v10.7c0,2.5,0.7,3.9,2.9,3.9c1,0,1.7-0.1,2.2-0.2l0.2,2.7
			c-0.7,0.2-1.9,0.5-3.4,0.5c-1.8,0-3.2-0.6-4.1-1.5c-1-1.1-1.5-2.9-1.5-5.2V32.4h-3.3v-2.7h3.3V26L298.3,24.9z"/>
		<path class="st0" d="M330.7,48.3c-1.7,0.6-5.1,1.5-9.1,1.5c-4.5,0-8.1-1.1-11-3.6c-2.5-2.3-4.1-6-4.1-10.3
			c0-8.2,6.1-14.3,15.9-14.3c3.4,0,6.1,0.7,7.4,1.3l-1,2.9c-1.6-0.7-3.5-1.2-6.5-1.2c-7.2,0-11.8,4.2-11.8,11.1
			c0,7,4.5,11.1,11.4,11.1c2.5,0,4.2-0.3,5.1-0.7v-8.2H321V35h9.7V48.3z"/>
		<path class="st0" d="M338.7,40.2c0.1,4.9,3.4,6.9,7.2,6.9c2.8,0,4.5-0.5,5.9-1l0.7,2.6c-1.4,0.6-3.7,1.3-7.1,1.3
			c-6.5,0-10.4-4.1-10.4-10s3.8-10.7,9.9-10.7c6.9,0,8.7,5.7,8.7,9.3c0,0.7,0,1.3-0.1,1.7H338.7z M350,37.6c0-2.3-1-5.8-5.3-5.8
			c-3.9,0-5.6,3.3-5.9,5.8H350z"/>
		<path class="st0" d="M358.5,35c0-2.1,0-3.7-0.2-5.4h3.4l0.2,3.3h0.1c1-1.8,3.5-3.7,7-3.7c2.9,0,7.5,1.6,7.5,8.4v11.8h-3.8V38.1
			c0-3.2-1.3-5.9-4.9-5.9c-2.5,0-4.5,1.7-5.2,3.7c-0.2,0.5-0.3,1.1-0.3,1.7v11.9h-3.8V35z"/>
	</g>
	<g>
		<g>
			<polygon class="st0" points="60,49.9 82.9,49.9 82.9,46.1 63.8,46.1 63.8,37.7 82.9,37.7 82.9,33.9 63.8,33.9 63.8,25.4 
				82.9,25.4 82.9,21.6 60,21.6 			"/>
			<rect x="130.9" y="21.6" class="st0" width="3.8" height="28.3"/>
			<path class="st0" d="M161.4,21.6c-7.8,0-14.2,6.4-14.2,14.2s6.4,14.2,14.2,14.2c0.9,0,1.9-0.1,2.8-0.3l0.4-0.1v-4l-0.7,0.2
				c-0.8,0.2-1.7,0.3-2.6,0.3c-5.7,0-10.4-4.6-10.4-10.4s4.6-10.4,10.4-10.4c0.9,0,1.8,0.1,2.6,0.3l0.7,0.2v-4l-0.4-0.1
				C163.3,21.7,162.3,21.6,161.4,21.6z"/>
			<path class="st0" d="M110.3,21.6H95.4v28.3h3.8V37.7h11c1.9,0,3.7-0.7,5.1-1.8c0.4-0.3,0.7-0.7,1.1-1.1c1.2-1.4,1.8-3.3,1.8-5.1
				C118.3,25.2,114.7,21.6,110.3,21.6z M110.3,33.9h-11v-8.4h11c2.3,0,4.2,1.9,4.2,4.2S112.6,33.9,110.3,33.9z"/>
			<path class="st0" d="M191.3,21.6c-7.8,0-14.2,6.4-14.2,14.2s6.4,14.2,14.2,14.2c7.8,0,14.2-6.4,14.2-14.2S199.2,21.6,191.3,21.6z
				 M191.3,46.1c-5.7,0-10.4-4.6-10.4-10.4s4.6-10.4,10.4-10.4c5.7,0,10.4,4.6,10.4,10.4S197.1,46.1,191.3,46.1z"/>
		</g>
		<path class="st0" d="M43.2,31.5L43.2,31.5l-0.1,0c-0.1,0-0.7,0.3-0.6,0.8c0,0.1,0.1,0.1,0.2,0.2c0.1,0,0.2,0.2,0.2,0.2
			c-0.3,0.2-1.5,1.1-2.4,1.8c-0.8,0.6-1.6,1.1-1.7,1.3c-0.1,0.1-0.4,0.5-0.8,0.9c-0.3,0.4-0.8,0.9-1,1.1c-0.6-0.9-3.8-3.6-4.1-3.9
			l-0.6-0.5c0.3-0.1,0.7-0.1,0.9-0.3c0.6-1.2-0.5-4.6-0.5-4.8l-1.4-4c0.5-0.1,2.1-0.3,3-0.3c0.4,0,0.5,0,0.5,0h0
			c0.7,1.7,2.7,3.1,3.5,3.6c0.1,0.1,0.3,0.2,0.3,0.2l0,0c0.3,0.9,1.5,2.3,2.3,2.3c0.2,0,0.3,0,0.4-0.1c0.3-0.2,0.4-0.6,0.2-1.1
			c-0.3-0.8-1-1.5-1.9-1.5c0,0,0,0,0,0c-0.2-0.1-1-1.2-1.7-2.1c-1.6-2-2.3-2.9-2.7-3c-0.5,0-4.1-0.3-4.6-0.4
			c-0.2-0.3-0.8-1.2-1.6-1.3c0-0.5-0.3-0.9-0.5-1.1c0,0-0.1-0.1-0.1-0.1c0,0,0,0,0,0c0.4-1.6,0.1-3.5-0.7-4.6
			c-0.4-0.5-0.9-0.8-1.4-0.8c-0.3,0-0.6,0.1-0.9,0.2c-0.7,0.3-1.1,0.9-1.1,1.7c0,1.5,1.4,3.5,2.4,4.1c0,0.3,0,0.8,0.3,1.1
			c-0.5,0.4-0.4,1.6-0.4,2c-0.4,0.3-2.7,2-3.8,2.9c-0.7-0.8-2.8-1.4-4.1-1.7c-0.5-0.1-1.2-0.3-1.2-0.4C17,23.6,16,23,15.1,23
			c-0.4,0-0.7,0.2-0.9,0.4c-0.2,0.3-0.1,0.6,0,0.8c0.4,0.6,1.5,1.1,2.2,1.1c0,0,0.1,0,0.1,0c0.4,0.1,1.1,0.5,2,1
			c1.3,0.7,2.9,1.6,4.3,1.9c0.8-0.1,3.1-1.9,3.7-2.3l2,2.3l-0.3,2.3l1.6,2.9c-0.1,0.2-0.2,0.4-0.2,0.4c-0.8,0.4-4.9,4.9-5,5.2
			c-0.5,1.3-0.4,5.3-0.4,7.7l0,0.2c-0.1,0.5,0,0.9,0.2,1.1c-0.6,0.1-2,0.2-2.5,0.5c-0.7,0.4-0.8,1.1-0.8,1.2l0,0.2l0.2,0
			c0,0,4.4-1,4.5-1c0.2,0,0.7-0.2,0.7-0.2l0.1,0l0-0.1c0.1-0.2,0.2-0.7,0-0.9c0-0.1-0.1-0.1-0.3-0.1c-0.1,0-0.3,0-0.4,0.1
			c-0.1,0-0.2,0.1-0.2,0.1c0,0,0-0.1,0.1-0.1l0,0l0,0c0,0,0.6-4.6,0.7-4.9c0.4-2,0-2.8-0.1-3.1c0,0,0,0,0,0c1.7-1,4.1-3.1,4.8-3.7
			c1,1.4,4.4,3.1,5.9,3.9c0.1,0,0.1,0.1,0.2,0.1c1.4,0,5.8-5.1,6.6-6.1c0.3,0.3,1.3,1.2,1.8,1.3c0.2,0,0.5,0.1,0.8,0.1h0
			c0.7,0,0.8-0.1,0.8-0.2c0-0.1,0.1-0.1,0.1-0.2C47.4,34.4,46,33.4,43.2,31.5z"/>
	</g>
</g>
</svg>
