<?xml version="1.0" encoding="utf-8"?>
<!-- Generator: Adobe Illustrator 23.1.1, SVG Export Plug-In . SVG Version: 6.00 Build 0)  -->
<svg version="1.1" id="Lag_1" xmlns="http://www.w3.org/2000/svg" xmlns:xlink="http://www.w3.org/1999/xlink" x="0px" y="0px"
	 viewBox="0 0 1190.55 841.89" style="enable-background:new 0 0 1190.55 841.89;" xml:space="preserve">
<style type="text/css">
	.st0{fill:#FFFFFF;}
</style>
<path class="st0" d="M636.43,328.97"/>
<path class="st0" d="M569.57,378.11c-0.59-0.73-0.57-2.49,0.03-3.22l55.31-72.36c2.4-2.87,1.66-5.32,1.24-6.24
	c-0.43-0.92-1.83-3.07-5.55-3.07h-41.55c-3.65,0-8.08,2.21-10.3,5.14c0,0-33.01,43.05-42.86,56.03l0.03-52.97
	c0-4.52-3.66-8.2-8.14-8.2h-32.67c-4.49,0-8.16,3.68-8.16,8.2v153.34c0,4.51,3.66,8.19,8.16,8.19h32.67c4.49,0,8.14-3.68,8.14-8.19
	v-56.34c10.27,13.34,45.3,59.6,45.3,59.6c2.23,2.9,7.11,4.93,10.77,4.93h40.87c3.72,0,5.12-2.14,5.56-3.06
	c0.44-0.92,1.18-3.36-1.19-6.24L569.57,378.11z"/>
<rect x="245.66" y="293.25" class="st0" width="168.69" height="169.65"/>
<path class="st0" d="M916.54,293.24h-52.28c-4.49,0-8.15,3.68-8.15,8.19v26.37c0,4.52,3.66,8.19,8.15,8.19h44.54
	c26.37,0,42.75,16.13,42.75,42.11c0,26.38-16.14,42.11-43.17,42.11l-63.44,0.01c-0.89,0-1.9-0.87-2.04-1.76l-19.62-117.6
	c-0.64-4.27-4.52-7.62-8.81-7.62l-32,0.09c-4.01,0-8.2,2.68-9.71,6.41c0,0.01-23.95,59.37-30.17,74.92
	c-5.88-15.58-30.14-74.75-30.14-74.75c-1.44-3.8-5.53-6.67-9.61-6.58l-29.63,0.06c-4.34-0.15-8.49,3.17-9.44,7.61l-25.91,153.47
	c-0.14,2.02,0.43,4.25,1.82,5.9c1.38,1.65,3.48,2.59,5.72,2.59h32.46c4.31,0,8.25-4.16,8.89-8.44c0,0,8.09-55.88,11.03-76.28
	c7.93,20,31.49,78.14,31.49,78.14c1.49,3.75,5.64,6.58,9.65,6.58h7.32c3.98,0,8.15-2.79,9.69-6.5c0,0,23.64-58.2,31.94-78.2
	c2.58,20.47,9.7,76.98,9.7,76.98c0.54,4.33,4.37,7.72,8.72,7.72h110.24c47.25,0,85.69-38.07,85.69-84.86
	C1002.24,331.32,963.8,293.24,916.54,293.24"/>
<g>
	<path class="st0" d="M667.69,537.06h-2.89c-0.44,0-0.73-0.34-0.83-0.73l-3.18-11.25h-12.66L645,536.33
		c-0.1,0.39-0.49,0.73-0.88,0.73h-2.89c-0.49,0-0.83-0.34-0.83-0.78c0-0.1,0-0.25,0.05-0.34l9.05-31.84
		c0.83-2.98,3.13-3.72,4.99-3.72c1.81,0,4.11,0.68,4.94,3.67l9.05,31.89c0.05,0.1,0.05,0.24,0.05,0.34
		C668.52,536.72,668.23,537.06,667.69,537.06z M655.41,505.13c-0.15-0.54-0.44-0.88-0.93-0.88c-0.54,0-0.83,0.34-0.98,0.88
		l-4.45,16.09h10.81L655.41,505.13z"/>
	<path class="st0" d="M692.88,537.06h-2.35c-0.54,0-0.98-0.44-0.98-0.98v-16.09c0-4.94-1.67-6.46-5.38-6.46
		c-2.05,0-4.35,0.78-6.6,1.91v20.64c0,0.49-0.44,0.98-0.98,0.98h-2.4c-0.49,0-0.93-0.44-0.93-0.98v-24.95
		c0-0.54,0.39-0.98,0.93-0.98h2.44c0.54,0,0.93,0.44,0.93,0.98v0.93c2.69-1.52,4.89-2.25,7.78-2.25c5.87,0,8.51,3.67,8.51,10.17
		v16.09C693.85,536.62,693.42,537.06,692.88,537.06z"/>
	<path class="st0" d="M737.28,537.06h-3.03c-0.79,0-1.32-0.3-1.57-0.78l-15.11-28.71c-0.05-0.1-0.1-0.15-0.15-0.15
		c-0.05,0-0.05,0.05-0.05,0.15v28.56c0,0.49-0.39,0.93-0.88,0.93h-2.54c-0.49,0-0.88-0.1-0.88-0.59v-34.39
		c0-0.78,0.63-1.37,1.42-1.37h2.69c1.37,0,1.62,0.24,2.01,0.98l15.01,28.56l0.1,0.15c0.05,0,0.05-0.1,0.05-0.15v-28.61
		c0-0.49,0.39-0.93,0.88-0.93h2.59c0.54,0,0.88,0.44,0.88,0.93v33.99C738.7,536.43,738.06,537.06,737.28,537.06z"/>
	<path class="st0" d="M766.28,537.16c-1.86,0.2-6.65,0.24-9.54,0.24c-6.85,0-10.42-2.59-10.42-9.1v-18.83c0-6.5,3.57-9.1,10.42-9.1
		c2.89,0,7.48,0.1,9.54,0.29c0.3,0.05,0.49,0.39,0.49,0.69v2.44c0,0.34-0.2,0.59-0.54,0.59h-9.44c-5.19,0-6.02,1.37-6.02,5.08v6.8
		h15.01c0.54,0,0.98,0.44,0.98,0.98v1.86c0,0.53-0.44,0.98-0.98,0.98h-15.01v8.21c0,3.72,0.83,5.09,6.02,5.09h9.44
		c0.34,0,0.54,0.24,0.54,0.59v2.5C766.77,536.77,766.58,537.11,766.28,537.16z"/>
	<path class="st0" d="M793.42,536.77c-2.05,0.4-3.96,0.64-8.12,0.64c-6.02,0-12.91-3.23-12.91-15.11v-6.8
		c0-11.98,6.89-15.11,12.91-15.11c3.08,0,6.07,0.44,8.22,0.78c0.44,0.05,0.78,0.2,0.78,0.63v2.5c0,0.3-0.1,0.54-0.59,0.54
		c-0.05,0-0.1,0-0.15,0c-1.76-0.15-5.38-0.44-8.22-0.44c-4.79,0-8.51,2.79-8.51,11.1v6.8c0,8.21,3.72,11.1,8.51,11.1
		c2.79,0,6.31-0.24,8.07-0.39c0.05,0,0.15,0,0.2,0c0.54,0,0.78,0.24,0.78,0.78v2.01C794.4,536.38,793.96,536.67,793.42,536.77z"/>
	<path class="st0" d="M832.15,536.77c-2.05,0.4-3.96,0.64-8.12,0.64c-6.02,0-12.91-3.23-12.91-15.11v-6.8
		c0-11.98,6.89-15.11,12.91-15.11c3.08,0,6.07,0.44,8.22,0.78c0.44,0.05,0.78,0.2,0.78,0.63v2.5c0,0.3-0.1,0.54-0.59,0.54
		c-0.05,0-0.1,0-0.15,0c-1.76-0.15-5.38-0.44-8.22-0.44c-4.79,0-8.51,2.79-8.51,11.1v6.8c0,8.21,3.72,11.1,8.51,11.1
		c2.79,0,6.31-0.24,8.07-0.39c0.05,0,0.15,0,0.2,0c0.54,0,0.78,0.24,0.78,0.78v2.01C833.13,536.38,832.69,536.67,832.15,536.77z"/>
	<path class="st0" d="M847.65,537.41c-7.19,0-10.86-4.75-10.86-11.94v-3.72c0-7.19,3.67-11.94,10.86-11.94
		c7.19,0,10.91,4.75,10.91,11.94v3.72C858.56,532.66,854.84,537.41,847.65,537.41z M854.25,521.75c0-4.99-2.01-8.17-6.6-8.17
		c-4.55,0-6.55,3.13-6.55,8.17v3.72c0,4.99,1.95,8.17,6.55,8.17c4.55,0,6.6-3.13,6.6-8.17V521.75z"/>
	<path class="st0" d="M895.73,537.06h-2.35c-0.54,0-0.98-0.44-0.98-0.98v-17.31c0-4.11-1.91-5.24-4.45-5.24
		c-1.76,0-3.81,0.59-5.72,1.32c0.3,1.08,0.44,2.35,0.44,3.82v17.41c0,0.49-0.34,0.98-0.88,0.98h-2.59c-0.49,0-0.83-0.44-0.83-0.98
		v-17.41c0-4.25-1.22-5.14-3.76-5.14c-1.76,0-3.91,0.88-5.97,1.91v20.64c0,0.49-0.34,0.98-0.88,0.98h-2.59
		c-0.49,0-0.83-0.44-0.83-0.98v-24.95c0-0.54,0.39-0.98,0.93-0.98h2.44c0.54,0,0.93,0.44,0.93,0.98v0.93
		c1.96-1.22,4.45-2.3,7.14-2.3c2.11,0,3.67,0.59,4.89,2.01c2.69-1.27,5.57-2.01,8.12-2.01c4.4,0,7.92,2.2,7.92,9v17.31
		C896.71,536.62,896.27,537.06,895.73,537.06z"/>
	<path class="st0" d="M913.38,537.41c-1.52,0-3.82-0.2-5.73-0.54v8.85c0,0.49-0.39,0.93-0.93,0.93h-2.49
		c-0.49,0-0.88-0.39-0.88-0.93v-33.65c0-0.63,0.15-0.93,1.03-1.12c2.59-0.63,6.01-1.12,9-1.12c7.29,0,10.66,4.75,10.66,12.08v3.52
		C924.04,533.1,920.52,537.41,913.38,537.41z M919.74,521.9c0-5.14-1.52-8.46-6.36-8.46c-2.06,0-4.35,0.24-5.73,0.49v19.37
		c1.62,0.29,4.16,0.49,5.73,0.49c4.79,0,6.36-3.13,6.36-8.36V521.9z"/>
	<path class="st0" d="M947.56,537.06h-2.25c-0.54,0-0.98-0.44-0.98-0.98v-1.08c-2.35,1.37-4.79,2.4-7.53,2.4
		c-4.16,0-7.97-1.81-7.97-7.92v-0.59c0-5.28,3.08-7.92,11.79-7.92h3.62v-1.96c0-4.11-1.42-5.53-5.23-5.53
		c-3.18,0-5.53,0.2-7.48,0.39c-0.1,0-0.14,0-0.24,0c-0.44,0-0.88-0.15-0.88-0.78v-1.71c0-0.54,0.34-0.83,1.03-0.93
		c2.01-0.34,4.25-0.64,7.58-0.64c6.8,0,9.54,3.43,9.54,9.2v17.07C948.54,536.62,948.1,537.06,947.56,537.06z M944.23,524.05h-3.62
		c-5.92,0-7.48,1.32-7.48,4.79v0.59c0,3.52,1.66,4.45,4.5,4.45c2.25,0,4.25-0.69,6.6-1.96V524.05z"/>
	<path class="st0" d="M974.8,537.06h-2.35c-0.54,0-0.98-0.44-0.98-0.98v-16.09c0-4.94-1.67-6.46-5.38-6.46
		c-2.05,0-4.35,0.78-6.6,1.91v20.64c0,0.49-0.44,0.98-0.98,0.98h-2.4c-0.49,0-0.93-0.44-0.93-0.98v-24.95
		c0-0.54,0.39-0.98,0.93-0.98h2.44c0.54,0,0.93,0.44,0.93,0.98v0.93c2.69-1.52,4.89-2.25,7.78-2.25c5.87,0,8.51,3.67,8.51,10.17
		v16.09C975.78,536.62,975.34,537.06,974.8,537.06z"/>
	<path class="st0" d="M1002.19,511.33l-8.07,28.17c-1.52,5.28-3.33,7.24-8.95,7.24c-1.37,0-3.08-0.2-4.11-0.44
		c-0.59-0.15-1.02-0.29-1.02-0.78v-1.81c0-0.54,0.39-0.78,0.93-0.78c0.05,0,0.1,0,0.15,0c1.08,0.1,3.28,0.29,4.35,0.29
		c2.79,0,4.01-0.73,4.85-4.15l0.49-2.01h-0.68c-1.47,0-2.74-0.34-3.62-3.37l-6.5-22.35c-0.05-0.1-0.05-0.24-0.05-0.34
		c0-0.49,0.3-0.83,0.88-0.83h2.69c0.39,0,0.73,0.39,0.83,0.78l5.77,21.23c0.24,0.98,0.59,1.08,0.93,1.08h0.78l5.97-22.35
		c0.1-0.39,0.49-0.73,0.93-0.73h2.74c0.49,0,0.78,0.34,0.78,0.83C1002.24,511.09,1002.24,511.24,1002.19,511.33z"/>
</g>
<path class="st0" d="M187.69,521.85"/>
</svg>
