<?xml version="1.0" encoding="utf-8"?>
<!-- Generator: Adobe Illustrator 23.1.1, SVG Export Plug-In . SVG Version: 6.00 Build 0)  -->
<svg version="1.1" id="Layer_1" xmlns="http://www.w3.org/2000/svg" xmlns:xlink="http://www.w3.org/1999/xlink" x="0px" y="0px"
	 viewBox="0 0 2500 337" style="enable-background:new 0 0 2500 337;" xml:space="preserve">
<style type="text/css">
	.st0{fill:#FFFFFF;}
</style>
<title>Sennheiser Logo RGB</title>
<g>
	<path class="st0" d="M1344.7,69h38.5v199.8h-48.9l-57-92.3c-9.6-16-18.5-32.9-18.5-32.9h-0.8v125.2h-38.5V69h45.7l67.4,109.1
		c4.8,7.2,8,14.4,11.2,22.5L1344.7,69L1344.7,69z M1566.9,150.8h-67.4V68.2h-48.9V268h48.9v-85h67.4v85h48.9V68.2h-48.9V150.8z
		 M848.8,181.3h63.4v-29.7h-63.4V99.5h85V69h-134v199.8h135.6v-33.7h-86.6L848.8,181.3L848.8,181.3z M672.3,113.9
		c-3.2-4-2.4-9.6,0.8-12.8c1.6-1.6,4-2.4,6.4-2.4h73V69h-86.6c-23.3-0.8-42.5,16.8-44.1,40.1c0,12,0.8,20.1,18.5,38.5l65,68.2
		c4.8,4,5.6,10.4,2.4,15.2c-2.4,3.2-5.6,4.8-9.6,4h-80.2v33.7h91.5c26.5,0.8,48.1-19.3,48.9-45.7v-1.6c0-12.8-3.2-22.5-20.9-40.1
		L672.3,113.9z M1113.6,199.8c-3.2-8-7.2-15.2-12-22.5l-67.4-109.1h-45.7V268h38.5V143.6h0.8c0,0,8,17.7,18.5,32.9l57,92.3h48.9V69
		h-38.5L1113.6,199.8L1113.6,199.8z M2197.5,181.3h63.4v-29.7h-63.4V99.5h85V69h-134.8v199.8h135.6v-33.7h-86.6L2197.5,181.3
		L2197.5,181.3z M2500,268.8h-53l-38.5-81.8h-21.7v81.8h-48.9V69h89.9c43.3,0,63.4,26.5,63.4,57.8c0,24.1-15.2,45.7-38.5,53.8
		L2500,268.8L2500,268.8z M2448.7,127.6c0-8.8-5.6-28.1-31.3-28.1h-30.5v57h29.7C2443.8,156.5,2448.7,136.4,2448.7,127.6
		L2448.7,127.6z M2020.2,113.9c-3.2-4-2.4-9.6,0.8-12.8c1.6-1.6,4-2.4,6.4-2.4h73V69h-86.6c-23.3-0.8-42.5,16.8-44.1,40.1
		c0,12,0.8,20.1,18.5,38.5l65,68.2c4.8,4,5.6,10.4,2.4,15.2c-2.4,3.2-5.6,4.8-9.6,4h-80.2v33.7h91.5c26.5,0.8,48.1-19.3,48.9-45.7
		v-1.6c0-12.8-3.2-22.5-20.9-40.1L2020.2,113.9L2020.2,113.9z M1732.2,181.3h63.4v-29.7h-63.4V99.5h85V69h-134.8v199.8H1818v-33.7
		h-86.6L1732.2,181.3z M1872.6,268.8h48.9V69h-48.9V268.8z M0,0v337h449.3V0H0z M247.1,31.3c-26.5,10.4-52.2,32.9-73,78.6
		c-5.6,12.8-17.7,38.5-22.5,49.7c-41.7,91.5-62.6,110.7-126,110.7V25.7h220.6c1.6,0,3.2,1.6,3.2,3.2
		C249.5,29.7,248.7,30.5,247.1,31.3L247.1,31.3z M423.6,66.6v244.7H203c-1.6,0-3.2-1.6-3.2-3.2c0-1.6,0.8-2.4,1.6-3.2
		c26.5-10.4,52.2-32.9,73-78.6c5.6-12.8,17.7-38.5,22.5-49.7C339.4,85.9,360.2,66.6,423.6,66.6L423.6,66.6z"/>
</g>
</svg>
