<?xml version="1.0" encoding="UTF-8"?>
<svg width="40px" height="40px" viewBox="0 0 40 40" version="1.1" xmlns="http://www.w3.org/2000/svg" xmlns:xlink="http://www.w3.org/1999/xlink">
    <!-- Generator: Sketch 52.3 (67297) - http://www.bohemiancoding.com/sketch -->
    <title>discord_icon</title>
    <desc>Created with Sketch.</desc>
    <g id="discord_icon" stroke="none" stroke-width="1" fill="none" fill-rule="evenodd">
        <g id="Group-3-Copy-2" transform="translate(1.000000, 7.000000)" fill="#FFFFFF">
            <path d="M37.6023256,21.3747508 C37.6023256,11.3709912 32.9664224,3.26235371 32.9664224,3.26235371 C28.3305193,-0.09294455 23.9199725,0.000258179306 23.9199725,0.000258179306 L23.4692597,0.497339402 C28.9422009,2.11285338 31.4855089,4.44292161 31.4855089,4.44292161 C23.8381048,0.398190145 14.8549106,0.397461998 7.43676131,3.54196189 C6.24559175,4.07011069 5.53732877,4.44292161 5.53732877,4.44292161 C5.53732877,4.44292161 8.20941183,1.98858307 14.0042908,0.373069097 L13.6823531,0.000258179306 C13.6823531,0.000258179306 9.27180631,-0.09294455 4.63590315,3.26235371 C4.63590315,3.26235371 0,11.3709912 0,21.3747508 C0,21.3747508 2.70427684,25.8795494 9.81910043,26.0970224 C9.81910043,26.0970224 11.01027,24.6989814 11.9760831,23.5184135 C7.88747412,22.3378456 6.34217306,19.8524395 6.34217306,19.8524395 C6.81577363,20.1723385 7.59672411,20.5870178 7.66211771,20.6290076 C13.0960743,23.5657431 20.8147826,24.5277457 27.7510314,21.7163728 C28.8778134,21.3124943 30.1333705,20.7223317 31.4533151,19.8835071 C31.4533151,19.8835071 29.8436266,22.4310484 25.6262424,23.5805487 C26.5920556,24.7609952 27.7510314,26.0970224 27.7510314,26.0970224 C34.865855,25.8795494 37.6023256,21.3747508 37.6023256,21.3747508 M12.7845295,11.5986766 C10.9235183,11.5986766 9.454299,13.1381034 9.454299,15.016204 C9.454299,16.8943046 10.9561677,18.4336111 12.7845295,18.4336111 C14.6455406,18.4336111 16.11476,16.8943046 16.11476,15.016204 C16.1474093,13.1381034 14.6455406,11.5986766 12.7845295,11.5986766 M27.9331561,15.016204 C27.9331561,16.8943046 26.4638216,18.4336111 24.6025369,18.4336111 C22.7741592,18.4336111 21.2721728,16.8943046 21.2721728,15.016204 C21.2721728,13.1381034 22.7415073,11.5986766 24.6025369,11.5986766 C26.4638216,11.5986766 27.9331561,13.1381034 27.9331561,15.016204" id="Fill-1"></path>
        </g>
    </g>
</svg>