<?xml version="1.0" encoding="UTF-8"?>
<svg width="40px" height="40px" viewBox="0 0 40 40" version="1.1" xmlns="http://www.w3.org/2000/svg" xmlns:xlink="http://www.w3.org/1999/xlink">
    <!-- Generator: Sketch 52.3 (67297) - http://www.bohemiancoding.com/sketch -->
    <title>twitch_icon</title>
    <desc>Created with Sketch.</desc>
    <g id="twitch_icon" stroke="none" stroke-width="1" fill="none" fill-rule="evenodd">
        <path d="M6.24969851,4 L4,9.55722656 L4,32.2702402 L11.9972671,32.2702402 L11.9972671,36.375 L16.4966642,36.375 L20.7419424,32.2702402 L27.2443933,32.2702402 L35.9890686,23.8151621 L35.9890686,4 L6.24969851,4 Z M8.98912079,6.83991228 L33.0542917,6.83991228 L33.0542917,22.3169599 L28.0389151,27.1552504 L20.0171915,27.1552504 L15.7589307,31.2631579 L15.7589307,27.1552504 L8.98912079,27.1552504 L8.98912079,6.83991228 Z M25.1303939,21.0394737 L28.0651709,21.0394737 L28.0651709,12.5197368 L25.1303939,12.5197368 L25.1303939,21.0394737 Z M16.9130185,21.0394737 L19.8477954,21.0394737 L19.8477954,12.5197368 L16.9130185,12.5197368 L16.9130185,21.0394737 Z" id="Fill-1" fill="#FFFFFF"></path>
    </g>
</svg>