<?xml version="1.0" encoding="utf-8"?>
<!-- Generator: Adobe Illustrator 23.0.4, SVG Export Plug-In . SVG Version: 6.00 Build 0)  -->
<svg version="1.1" id="Layer_1" xmlns="http://www.w3.org/2000/svg" xmlns:xlink="http://www.w3.org/1999/xlink" x="0px" y="0px"
	 viewBox="0 0 174.2 76.7" style="enable-background:new 0 0 174.2 76.7;" xml:space="preserve">
<metadata><?xpacket begin="﻿" id="W5M0MpCehiHzreSzNTczkc9d"?>
<x:xmpmeta xmlns:x="adobe:ns:meta/" x:xmptk="Adobe XMP Core 5.6-c148 79.163858, 2019/03/06-03:18:36        ">
   <rdf:RDF xmlns:rdf="http://www.w3.org/1999/02/22-rdf-syntax-ns#">
      <rdf:Description rdf:about=""
            xmlns:xmp="http://ns.adobe.com/xap/1.0/"
            xmlns:xmpMM="http://ns.adobe.com/xap/1.0/mm/"
            xmlns:stEvt="http://ns.adobe.com/xap/1.0/sType/ResourceEvent#">
         <xmp:MetadataDate>2019-07-23T16:31:09+02:00</xmp:MetadataDate>
         <xmpMM:InstanceID>xmp.iid:325012e8-48df-41f1-9462-cd3a7b18aee4</xmpMM:InstanceID>
         <xmpMM:DocumentID>xmp.did:325012e8-48df-41f1-9462-cd3a7b18aee4</xmpMM:DocumentID>
         <xmpMM:OriginalDocumentID>xmp.did:325012e8-48df-41f1-9462-cd3a7b18aee4</xmpMM:OriginalDocumentID>
         <xmpMM:History>
            <rdf:Seq>
               <rdf:li>
                  <rdf:Description>
                     <stEvt:action>saved</stEvt:action>
                     <stEvt:instanceID>xmp.iid:325012e8-48df-41f1-9462-cd3a7b18aee4</stEvt:instanceID>
                     <stEvt:when>2019-07-23T16:31:09+02:00</stEvt:when>
                     <stEvt:softwareAgent>Adobe Bridge 2019 (Macintosh)</stEvt:softwareAgent>
                     <stEvt:changed>/metadata</stEvt:changed>
                  </rdf:Description>
               </rdf:li>
            </rdf:Seq>
         </xmpMM:History>
      </rdf:Description>
   </rdf:RDF>
</x:xmpmeta>
                                                                                                    
                                                                                                    
                                                                                                    
                                                                                                    
                                                                                                    
                                                                                                    
                                                                                                    
                                                                                                    
                                                                                                    
                                                                                                    
                                                                                                    
                                                                                                    
                                                                                                    
                                                                                                    
                                                                                                    
                                                                                                    
                                                                                                    
                                                                                                    
                                                                                                    
                                                                                                    
                           
<?xpacket end="w"?></metadata>
<style type="text/css">
	.st0{fill:#0099DA;}
	.st1{opacity:0;fill:#FFFFFF;}
</style>
<rect x="29.4" y="29.3" transform="matrix(0.7071 0.7071 -0.7071 0.7071 38.3653 -15.9141)" class="st0" width="18" height="18"/>
<rect x="76.4" y="33.5" class="st0" width="2.7" height="10.5"/>
<rect x="76.4" y="29" class="st0" width="2.7" height="2.6"/>
<path class="st0" d="M70.4,33.2c-1.5,0-2.9,0.7-3.7,2.1c-0.4-1.3-1.6-2.1-3-2.1c-1.4,0-2.8,0.8-3.5,2h0c0-0.5,0-1.8,0-1.8h-2.5V44
	h2.7v-5.3c0-1.9,1-3.3,2.3-3.3c1.1,0,1.7,0.9,1.7,2.2V44h2.8v-5.2c0-2.1,0.9-3.4,2.2-3.4c1.2,0,1.8,0.9,1.8,2.7V44h2.8v-6.1
	C73.8,35.3,73,33.2,70.4,33.2z"/>
<path class="st0" d="M120.3,33.2c-3.4,0-5.6,2.1-5.6,5.5c0,3.3,2.3,5.5,5.6,5.5c3.3,0,5.6-2.2,5.6-5.5
	C125.8,35.4,123.5,33.2,120.3,33.2z M120.2,42.2c-1.6,0-2.6-1.3-2.6-3.4c0-2.3,1-3.5,2.6-3.5c1.7,0,2.7,1.2,2.7,3.4
	S121.9,42.2,120.2,42.2z"/>
<path class="st0" d="M133.3,33.2c-1.5,0-2.7,0.7-3.5,2h0c0-0.6,0-1.8,0-1.8h-2.6V44h2.7v-4.8c0-1,0.1-1.9,0.5-2.5
	c0.4-0.8,1.2-1.4,2.2-1.4c1.8,0,1.9,1.5,1.9,3.5V44h2.7v-6.1C137.1,35.1,136.1,33.2,133.3,33.2z"/>
<path class="st0" d="M148.6,38.9c0-3.8-1.6-5.6-4.6-5.6c-3.2,0-5.3,2.3-5.3,5.5c0,3.5,2.3,5.6,5.7,5.6c1.3,0,2.5-0.3,3.4-0.7l0-2.3
	c-0.9,0.6-1.9,0.9-3.1,0.9c-1.9,0-3.2-1-3.3-2.7h7.1C148.6,39.4,148.6,39,148.6,38.9z M141.5,37.6c0.1-1.6,1.2-2.5,2.4-2.5
	c1.4,0,2.2,0.7,2.2,2.5H141.5z"/>
<path class="st0" d="M96.9,38.9c0-3.8-1.6-5.6-4.6-5.6c-3.2,0-5.3,2.3-5.3,5.5c0,3.5,2.3,5.6,5.7,5.6c1.3,0,2.5-0.3,3.4-0.7l0-2.3
	c-0.9,0.6-1.9,0.9-3.1,0.9c-1.9,0-3.2-1-3.3-2.7h7.1C96.9,39.4,96.9,39,96.9,38.9z M89.8,37.6c0.1-1.6,1.2-2.5,2.4-2.5
	c1.4,0,2.2,0.7,2.2,2.5H89.8z"/>
<path class="st0" d="M102.8,37.7c-1.5-0.5-1.9-0.7-1.9-1.5c0-0.7,0.7-1.1,1.6-1.1c0.8,0,1.6,0.2,2.4,0.6v-2.1
	c-0.7-0.3-1.6-0.4-2.6-0.4c-2.5,0-4.2,1.2-4.2,3.2c0,1.6,0.8,2.4,2.8,3.1c1.7,0.6,2.1,0.9,2.1,1.6c0,0.8-0.8,1.1-1.7,1.1
	c-0.9,0-1.9-0.2-2.9-0.7v2.2c1,0.3,2,0.5,3,0.5c2.6,0,4.3-1.2,4.3-3.4C105.8,39.1,104.7,38.4,102.8,37.7z"/>
<path class="st0" d="M113.7,41.8c-0.3,0.1-0.7,0.2-1,0.2c-1.3,0-1.6-0.7-1.6-2.3v-4.1h2.5v-2h-2.5v-5.1l-2.6,2.6v2.5h-2.1v2h2v4.7
	c0,2.8,1,4,3.4,4c0.7,0,1.4-0.1,1.9-0.3L113.7,41.8z"/>
<polygon class="st0" points="82.3,31.1 82.3,44 85.1,44 85.1,28.4 "/>
<rect x="29.4" y="29.3" transform="matrix(0.7071 0.7071 -0.7071 0.7071 38.3653 -15.9141)" class="st0" width="18" height="18"/>
<rect x="0" y="0" class="st1" width="174.2" height="76.7"/>
</svg>
