<?xml version="1.0" encoding="UTF-8"?>
<svg width="40px" height="40px" viewBox="0 0 40 40" version="1.1" xmlns="http://www.w3.org/2000/svg" xmlns:xlink="http://www.w3.org/1999/xlink">
    <!-- Generator: Sketch 52.3 (67297) - http://www.bohemiancoding.com/sketch -->
    <title>insta_icon</title>
    <desc>Created with Sketch.</desc>
    <defs>
        <polygon id="path-1" points="0 0 33.5325137 0 33.5325137 32.375 0 32.375"></polygon>
    </defs>
    <g id="insta_icon" stroke="none" stroke-width="1" fill="none" fill-rule="evenodd">
        <g id="Group-3" transform="translate(3.000000, 4.000000)">
            <mask id="mask-2" fill="white">
                <use xlink:href="#path-1"></use>
            </mask>
            <g id="Clip-2"></g>
            <path d="M29.8388876,25.7306119 C29.2553882,27.1465441 28.1258681,28.2373175 26.6520832,28.8080971 C24.4452586,29.6533219 19.2087255,29.45827 16.7699972,29.45827 C14.3312689,29.45827 9.0872551,29.6460255 6.8879112,28.8080971 C5.42168194,28.2446139 4.29208694,27.153696 3.70110678,25.7306119 C2.82585768,23.5994895 3.02783824,18.5425889 3.02783824,16.1874458 C3.02783824,13.8324472 2.83333844,8.76832248 3.70110678,6.64442423 C4.28460618,5.22849206 5.41420117,4.13764637 6.8879112,3.56693901 C9.09473586,2.7217142 14.3312689,2.91676608 16.7699972,2.91676608 C19.2087255,2.91676608 24.4527393,2.72893834 26.6520832,3.56693901 C28.1183125,4.13042222 29.2479823,5.22126792 29.8388876,6.64442423 C30.7141367,8.77554662 30.5121562,13.8324472 30.5121562,16.1874458 C30.5121562,18.5425889 30.7141367,23.6067136 29.8388876,25.7306119 M33.4146917,9.51240928 C33.2875935,6.91894169 32.6740963,4.62166399 30.7067308,2.72893834 C28.7466965,0.836140452 26.3678891,0.24383291 23.6822209,0.113726082 C20.9143391,-0.0379086941 12.6181745,-0.0379086941 9.85029277,0.113726082 C7.17218014,0.236608767 4.79329797,0.82898855 2.82585768,2.7217142 C0.858417388,4.61443985 0.252475702,6.91171755 0.117821994,9.50511289 C-0.0392739982,12.1780461 -0.0392739982,20.1896937 0.117821994,22.8626268 C0.244994941,25.4560222 0.858417388,27.7533721 2.82585768,29.6460255 C4.79329797,31.5387512 7.16469938,32.1312032 9.85029277,32.2611656 C12.6181745,32.4129448 20.9143391,32.4129448 23.6822209,32.2611656 C26.3678891,32.1383551 28.7466965,31.5460476 30.7067308,29.6460255 C32.6666155,27.7533721 33.280038,25.4560222 33.4146917,22.8626268 C33.5717877,20.1896937 33.5717877,12.1853424 33.4146917,9.51240928 M27.7218321,7.54744219 C27.7218321,8.6238396 26.8241407,9.48351271 25.716988,9.48351271 C24.6023546,9.48351271 23.7122187,8.61661546 23.7122187,7.54744219 C23.7122187,6.47826893 24.6099101,5.61137168 25.716988,5.61137168 C26.8241407,5.61137168 27.7218321,6.47826893 27.7218321,7.54744219 M16.7699972,21.5839534 C13.6954042,21.5839534 11.1818683,19.1638653 11.1818683,16.1874458 C11.1818683,13.2111709 13.6879235,10.7910827 16.7699972,10.7910827 C19.852071,10.7910827 22.3581261,13.2111709 22.3581261,16.1874458 C22.3581261,19.1638653 19.8445902,21.5839534 16.7699972,21.5839534 M16.7699972,7.88697695 C12.0122329,7.88697695 8.17460219,11.5929627 8.17460219,16.1874458 C8.17460219,20.7820735 12.0122329,24.4880592 16.7699972,24.4880592 C21.5277616,24.4880592 25.3653922,20.7820735 25.3653922,16.1874458 C25.3653922,11.5929627 21.5277616,7.88697695 16.7699972,7.88697695" id="Fill-1" fill="#FFFFFF" mask="url(#mask-2)"></path>
        </g>
    </g>
</svg>